<svg version="1" xmlns="http://www.w3.org/2000/svg" width="789.333" height="789.333" viewBox="0 0 592.000000 592.000000"><path d="M131 62.5c-30.7 6.3-54.7 27.2-65.2 56.6-4.7 13.5-4.9 17.6-4.6 104.1l.3 80.8 13.6-25.8c35.2-66.3 87.3-165.7 96.7-184.2 5.7-11.3 11.9-23.3 13.8-26.8L189 61l-25.8.1c-17.1.1-27.9.5-32.2 1.4zM337.6 215.2c.3 84.9.9 164 1.3 175.9l.6 21.7 24.4-46.7c32.4-62 119.3-227.5 119.6-227.8.1-.2 10.9 5.1 24 11.8l23.8 12-.6-14.8c-.4-12-1-16.5-3.2-23.8-9.3-31.7-34.8-54.8-67.3-61.1-5.8-1.1-19.5-1.4-65.3-1.4h-58l.7 154.2zM217.1 246.9c-35.5 67.6-108.3 206.4-108.6 206.8 0 .1-10.8-5.1-23.8-11.7L61 430v10.8c0 18 2.8 30.3 10.1 44 12.7 23.9 33.9 39.5 60.7 44.8 5.9 1.1 19.1 1.4 65.3 1.4h58l-.7-154.2c-.3-84.9-.9-164-1.3-175.9l-.6-21.7-35.4 67.7zM517 313.4c-35.1 66.4-97.5 185.5-103.5 197.6-3.7 7.4-7.6 15-8.7 16.7l-2 3.3h25c17.7 0 27.2-.4 32.4-1.4 32.7-6.4 57.4-28.8 67.5-61.1l2.8-9 .3-73.5c.1-40.4.1-79 0-85.8l-.3-12.3-13.5 25.5z"/></svg>