<svg version="1" xmlns="http://www.w3.org/2000/svg" width="789.333" height="789.333" viewBox="0 0 592.000000 592.000000"><path d="M213.4 14.7c-4.3 8.1-11.4 21.8-15.9 30.3l-8.2 15.5-28.9.6c-26 .5-29.7.8-36.4 2.8-31.4 9.4-55 34.8-61.4 66.3-1.4 6.7-1.6 19.1-1.6 91.5v83.7L40.9 344c-11.1 21.2-22.6 43.1-25.6 48.6l-5.4 10.2 24.3 12.7c13.4 7 24.9 13.2 25.6 13.7.8.7 1.2 4.6 1.2 13 0 6.9.7 15.1 1.6 19.6 6.9 33.7 33.9 60.7 67.6 67.6 6.5 1.4 16.8 1.6 65.8 1.6h58l8.3 4.1c4.5 2.3 30.4 15.8 57.5 30.1 27.2 14.2 49.8 26 50.3 26.1.5.1 8.1-13.3 16.8-29.8l15.7-30 29-.6c25.9-.5 29.7-.8 36.3-2.8 31.4-9.4 55.1-34.9 61.5-66.3 1.4-6.7 1.6-19 1.6-91.5v-83.8l19.1-36.5c10.5-20.1 21.9-42 25.5-48.7l6.4-12.1-24.2-12.7c-13.4-7-24.9-13.2-25.5-13.7-.9-.7-1.3-4.6-1.3-13 0-6.9-.7-15.1-1.6-19.6-6.9-33.8-33.8-60.7-67.6-67.6-6.5-1.4-16.8-1.6-66-1.6h-58.2l-50.1-26.2C260 20.5 233.8 6.7 229.3 4.3l-8.1-4.4-7.8 14.8zm123.9 121.5c.4 26 .8 83.7.8 128.3.1 44.5.5 96.1.8 114.5l.6 33.5L410.9 276c39.3-75.1 71.7-136.9 72.1-137.3.4-.5 5.1 1.3 10.4 4l9.6 4.8V340l-42.7 81.5-42.7 81.5H255.3l-.6-47.3c-.4-25.9-.8-83.7-.8-128.2-.1-44.6-.5-96.1-.8-114.5l-.6-33.5-71.9 137.3C141.1 392.2 108.4 454 108.1 454c-.3-.1-4.6-2.2-9.6-4.8l-9-4.7-.3-96.3L89 252l42.7-81.5L174.4 89h162.3l.6 47.2z"/></svg>